G04 #@! TF.GenerationSoftware,KiCad,Pcbnew,(6.0.7)*
G04 #@! TF.CreationDate,2022-10-04T19:15:27+13:00*
G04 #@! TF.ProjectId,ledusbc2key,6c656475-7362-4633-926b-65792e6b6963,rev?*
G04 #@! TF.SameCoordinates,Original*
G04 #@! TF.FileFunction,Paste,Bot*
G04 #@! TF.FilePolarity,Positive*
%FSLAX46Y46*%
G04 Gerber Fmt 4.6, Leading zero omitted, Abs format (unit mm)*
G04 Created by KiCad (PCBNEW (6.0.7)) date 2022-10-04 19:15:27*
%MOMM*%
%LPD*%
G01*
G04 APERTURE LIST*
G04 Aperture macros list*
%AMRoundRect*
0 Rectangle with rounded corners*
0 $1 Rounding radius*
0 $2 $3 $4 $5 $6 $7 $8 $9 X,Y pos of 4 corners*
0 Add a 4 corners polygon primitive as box body*
4,1,4,$2,$3,$4,$5,$6,$7,$8,$9,$2,$3,0*
0 Add four circle primitives for the rounded corners*
1,1,$1+$1,$2,$3*
1,1,$1+$1,$4,$5*
1,1,$1+$1,$6,$7*
1,1,$1+$1,$8,$9*
0 Add four rect primitives between the rounded corners*
20,1,$1+$1,$2,$3,$4,$5,0*
20,1,$1+$1,$4,$5,$6,$7,0*
20,1,$1+$1,$6,$7,$8,$9,0*
20,1,$1+$1,$8,$9,$2,$3,0*%
%AMRotRect*
0 Rectangle, with rotation*
0 The origin of the aperture is its center*
0 $1 length*
0 $2 width*
0 $3 Rotation angle, in degrees counterclockwise*
0 Add horizontal line*
21,1,$1,$2,0,0,$3*%
G04 Aperture macros list end*
%ADD10R,1.500000X1.000000*%
%ADD11RoundRect,0.250001X0.462499X0.624999X-0.462499X0.624999X-0.462499X-0.624999X0.462499X-0.624999X0*%
%ADD12RoundRect,0.250000X0.450000X-0.350000X0.450000X0.350000X-0.450000X0.350000X-0.450000X-0.350000X0*%
%ADD13RoundRect,0.250000X0.070711X-0.565685X0.565685X-0.070711X-0.070711X0.565685X-0.565685X0.070711X0*%
%ADD14RoundRect,0.250000X1.025000X1.000000X-1.025000X1.000000X-1.025000X-1.000000X1.025000X-1.000000X0*%
%ADD15RoundRect,0.250000X-0.565685X-0.070711X-0.070711X-0.565685X0.565685X0.070711X0.070711X0.565685X0*%
%ADD16RoundRect,0.250000X-0.475000X0.337500X-0.475000X-0.337500X0.475000X-0.337500X0.475000X0.337500X0*%
%ADD17RoundRect,0.250000X0.574524X0.097227X0.097227X0.574524X-0.574524X-0.097227X-0.097227X-0.574524X0*%
%ADD18R,0.700000X1.000000*%
%ADD19R,0.700000X0.600000*%
%ADD20RoundRect,0.250000X0.097227X-0.574524X0.574524X-0.097227X-0.097227X0.574524X-0.574524X0.097227X0*%
%ADD21R,1.100000X1.800000*%
%ADD22RotRect,1.600000X0.550000X135.000000*%
%ADD23RotRect,1.600000X0.550000X45.000000*%
%ADD24RoundRect,0.250000X-0.574524X-0.097227X-0.097227X-0.574524X0.574524X0.097227X0.097227X0.574524X0*%
%ADD25RoundRect,0.250000X-0.350000X-0.450000X0.350000X-0.450000X0.350000X0.450000X-0.350000X0.450000X0*%
%ADD26RotRect,2.100000X1.800000X225.000000*%
%ADD27R,0.600000X2.450000*%
%ADD28R,0.300000X2.450000*%
%ADD29RoundRect,0.250000X0.337500X0.475000X-0.337500X0.475000X-0.337500X-0.475000X0.337500X-0.475000X0*%
%ADD30RoundRect,0.250000X-0.070711X0.565685X-0.565685X0.070711X0.070711X-0.565685X0.565685X-0.070711X0*%
%ADD31RoundRect,0.250000X0.475000X-0.337500X0.475000X0.337500X-0.475000X0.337500X-0.475000X-0.337500X0*%
G04 APERTURE END LIST*
D10*
X113060000Y-86677500D03*
X113060000Y-83477500D03*
X117960000Y-83477500D03*
X117960000Y-86677500D03*
D11*
X135040000Y-67192500D03*
X132065000Y-67192500D03*
D12*
X120852500Y-71097500D03*
X120852500Y-69097500D03*
D13*
X133217500Y-94346123D03*
X134631714Y-92931909D03*
D14*
X107892500Y-75882500D03*
X121342500Y-73342500D03*
D12*
X128472500Y-71097500D03*
X128472500Y-69097500D03*
D15*
X120342500Y-102996909D03*
X121756714Y-104411123D03*
D16*
X139002000Y-84052500D03*
X139002000Y-86127500D03*
D17*
X133241511Y-106852081D03*
X131774265Y-105384835D03*
D18*
X123662500Y-71752500D03*
D19*
X123662500Y-70052500D03*
X125662500Y-70052500D03*
X125662500Y-71952500D03*
D20*
X134925254Y-96765869D03*
X136392500Y-95298623D03*
D21*
X114325000Y-100400000D03*
X110625000Y-94200000D03*
X110625000Y-100400000D03*
X114325000Y-94200000D03*
D22*
X130797210Y-99014321D03*
X130231524Y-99580006D03*
X129665839Y-100145692D03*
X129100154Y-100711377D03*
X128534468Y-101277063D03*
X127968783Y-101842748D03*
X127403097Y-102408433D03*
X126837412Y-102974119D03*
D23*
X124786802Y-102974119D03*
X124221117Y-102408433D03*
X123655431Y-101842748D03*
X123089746Y-101277063D03*
X122524060Y-100711377D03*
X121958375Y-100145692D03*
X121392690Y-99580006D03*
X120827004Y-99014321D03*
D22*
X120827004Y-96963711D03*
X121392690Y-96398026D03*
X121958375Y-95832340D03*
X122524060Y-95266655D03*
X123089746Y-94700969D03*
X123655431Y-94135284D03*
X124221117Y-93569599D03*
X124786802Y-93003913D03*
D23*
X126837412Y-93003913D03*
X127403097Y-93569599D03*
X127968783Y-94135284D03*
X128534468Y-94700969D03*
X129100154Y-95266655D03*
X129665839Y-95832340D03*
X130231524Y-96398026D03*
X130797210Y-96963711D03*
D24*
X138025833Y-99098655D03*
X139493079Y-100565901D03*
D25*
X110522500Y-91585000D03*
X112522500Y-91585000D03*
D20*
X128991377Y-91171123D03*
X130458623Y-89703877D03*
D26*
X137489456Y-102763236D03*
X135438846Y-104813846D03*
X133812500Y-103187500D03*
X135863110Y-101136890D03*
D27*
X121550000Y-65672500D03*
X122325000Y-65672500D03*
D28*
X123025000Y-65672500D03*
X123525000Y-65672500D03*
X124025000Y-65672500D03*
X124525000Y-65672500D03*
X125025000Y-65672500D03*
X125525000Y-65672500D03*
X126025000Y-65672500D03*
X126525000Y-65672500D03*
D27*
X127225000Y-65672500D03*
X128000000Y-65672500D03*
D29*
X134357500Y-71002500D03*
X132282500Y-71002500D03*
D30*
X133044214Y-91344409D03*
X131630000Y-92758623D03*
D29*
X126862500Y-106675000D03*
X124787500Y-106675000D03*
D14*
X126942500Y-75882500D03*
X140392500Y-73342500D03*
D31*
X110747500Y-86115000D03*
X110747500Y-84040000D03*
D10*
X136689500Y-83490000D03*
X136689500Y-86690000D03*
X131789500Y-86690000D03*
X131789500Y-83490000D03*
M02*
