M48
; DRILL file {KiCad (6.0.7)} date Mon Sep 12 20:58:55 2022
; FORMAT={-:-/ absolute / inch / decimal}
; #@! TF.CreationDate,2022-09-12T20:58:55+12:00
; #@! TF.GenerationSoftware,Kicad,Pcbnew,(6.0.7)
; #@! TF.FileFunction,Plated,1,2,PTH
FMAT,2
INCH
; #@! TA.AperFunction,Plated,PTH,ViaDrill
T1C0.0157
; #@! TA.AperFunction,Plated,PTH,ComponentDrill
T2C0.0236
%
G90
G05
T1
X4.5125Y-3.4375
X4.6625Y-3.6125
X4.7Y-3.925
X4.875Y-3.7286
X4.95Y-3.0625
X4.9718Y-2.6968
X5.0625Y-2.7
X5.075Y-3.9
X5.1Y-2.7125
X5.125Y-3.1375
X5.15Y-3.9
X5.175Y-2.675
X5.175Y-4.1625
X5.2086Y-4.1
X5.25Y-2.675
X5.275Y-4.0
X5.3505Y-3.387
T2
G00X4.8549Y-2.36
M15
G01X4.8549Y-2.3837
M16
G05
G00X4.8549Y-2.5148
M15
G01X4.8549Y-2.5581
M16
G05
G00X5.1951Y-2.36
M15
G01X5.1951Y-2.3837
M16
G05
G00X5.1951Y-2.5148
M15
G01X5.1951Y-2.5581
M16
G05
T0
M30
