M48
; DRILL file {KiCad (6.0.7)} date Tue Oct  4 19:15:42 2022
; FORMAT={-:-/ absolute / metric / decimal}
; #@! TF.CreationDate,2022-10-04T19:15:42+13:00
; #@! TF.GenerationSoftware,Kicad,Pcbnew,(6.0.7)
; #@! TF.FileFunction,Plated,1,2,PTH
FMAT,2
METRIC
; #@! TA.AperFunction,Plated,PTH,ViaDrill
T1C0.400
; #@! TA.AperFunction,Plated,PTH,ComponentDrill
T2C0.600
; #@! TA.AperFunction,Plated,PTH,ComponentDrill
T3C3.000
%
G90
G05
T1
X118.5Y-89.712
X119.287Y-94.462
X122.374Y-82.65
X123.226Y-68.828
X124.226Y-68.817
X125.225Y-68.837
X125.5Y-89.7
X125.537Y-92.0
X125.757Y-81.518
X126.225Y-68.838
X126.9Y-90.0
X129.975Y-66.35
X130.75Y-68.775
X132.112Y-95.175
T3
X111.442Y-75.882
X117.792Y-73.343
X130.493Y-75.882
X136.843Y-73.343
T2
X120.455Y-59.777G85X120.455Y-60.377
G05
X120.455Y-63.707G85X120.455Y-64.807
G05
X129.095Y-59.777G85X129.095Y-60.377
G05
X129.095Y-63.707G85X129.095Y-64.807
G05
T0
M30
