  0
SECTION
  2
HEADER
  9
$ACADVER
  1
AC1009
  9
$FILLMODE
 70
 0
  9
$SPLFRAME
 70
 1
  9
$EXTMIN
 10
0
 20
0
 30
0.0
  9
$EXTMAX
 10
1058.33
 20
1058.33
 30
0.0
  0
ENDSEC
  0
SECTION
  2
TABLES
  0
TABLE
  2
LAYER
 70
1
  0
LAYER
  2
0
 70
     0
 62
     7
  6
CONTINUOUS
  0
ENDTAB
  0
ENDSEC
  0
SECTION
  2
ENTITIES
  0
LINE
  8
0
 62
     0
 10
98.2969
 20
133.608
 30
0.0
 11
99.0808
 21
133.578
 31
0.0
  0
LINE
  8
0
 62
     0
 10
99.0808
 20
133.578
 30
0.0
 11
99.8608
 21
133.484
 31
0.0
  0
LINE
  8
0
 62
     0
 10
99.8608
 20
133.484
 30
0.0
 11
100.63
 21
133.331
 31
0.0
  0
LINE
  8
0
 62
     0
 10
100.63
 20
133.331
 30
0.0
 11
101.387
 21
133.119
 31
0.0
  0
LINE
  8
0
 62
     0
 10
101.387
 20
133.119
 30
0.0
 11
102.122
 21
132.846
 31
0.0
  0
LINE
  8
0
 62
     0
 10
102.122
 20
132.846
 30
0.0
 11
102.836
 21
132.518
 31
0.0
  0
LINE
  8
0
 62
     0
 10
102.836
 20
132.518
 30
0.0
 11
103.521
 21
132.135
 31
0.0
  0
LINE
  8
0
 62
     0
 10
103.521
 20
132.135
 30
0.0
 11
104.174
 21
131.698
 31
0.0
  0
LINE
  8
0
 62
     0
 10
104.174
 20
131.698
 30
0.0
 11
104.79
 21
131.213
 31
0.0
  0
LINE
  8
0
 62
     0
 10
104.79
 20
131.213
 30
0.0
 11
105.368
 21
130.679
 31
0.0
  0
LINE
  8
0
 62
     0
 10
105.368
 20
130.679
 30
0.0
 11
105.901
 21
130.102
 31
0.0
  0
LINE
  8
0
 62
     0
 10
105.901
 20
130.102
 30
0.0
 11
106.386
 21
129.485
 31
0.0
  0
LINE
  8
0
 62
     0
 10
106.386
 20
129.485
 30
0.0
 11
106.823
 21
128.833
 31
0.0
  0
LINE
  8
0
 62
     0
 10
106.823
 20
128.833
 30
0.0
 11
107.206
 21
128.148
 31
0.0
  0
LINE
  8
0
 62
     0
 10
107.206
 20
128.148
 30
0.0
 11
107.534
 21
127.434
 31
0.0
  0
LINE
  8
0
 62
     0
 10
107.534
 20
127.434
 30
0.0
 11
107.807
 21
126.698
 31
0.0
  0
LINE
  8
0
 62
     0
 10
107.807
 20
126.698
 30
0.0
 11
108.019
 21
125.942
 31
0.0
  0
LINE
  8
0
 62
     0
 10
108.019
 20
125.942
 30
0.0
 11
108.172
 21
125.173
 31
0.0
  0
LINE
  8
0
 62
     0
 10
108.172
 20
125.173
 30
0.0
 11
108.266
 21
124.393
 31
0.0
  0
LINE
  8
0
 62
     0
 10
108.266
 20
124.393
 30
0.0
 11
108.296
 21
123.607
 31
0.0
  0
LINE
  8
0
 62
     0
 10
108.296
 20
123.607
 30
0.0
 11
108.296
 21
10.356
 31
0.0
  0
LINE
  8
0
 62
     0
 10
108.296
 20
10.356
 30
0.0
 11
108.266
 21
9.57185
 31
0.0
  0
LINE
  8
0
 62
     0
 10
108.266
 20
9.57185
 30
0.0
 11
108.172
 21
8.79189
 31
0.0
  0
LINE
  8
0
 62
     0
 10
108.172
 20
8.79189
 30
0.0
 11
108.019
 21
8.02294
 31
0.0
  0
LINE
  8
0
 62
     0
 10
108.019
 20
8.02294
 30
0.0
 11
107.807
 21
7.26641
 31
0.0
  0
LINE
  8
0
 62
     0
 10
107.807
 20
7.26641
 30
0.0
 11
107.534
 21
6.53052
 31
0.0
  0
LINE
  8
0
 62
     0
 10
107.534
 20
6.53052
 30
0.0
 11
107.206
 21
5.81671
 31
0.0
  0
LINE
  8
0
 62
     0
 10
107.206
 20
5.81671
 30
0.0
 11
106.823
 21
5.13182
 31
0.0
  0
LINE
  8
0
 62
     0
 10
106.823
 20
5.13182
 30
0.0
 11
106.386
 21
4.47862
 31
0.0
  0
LINE
  8
0
 62
     0
 10
106.386
 20
4.47862
 30
0.0
 11
105.901
 21
3.86263
 31
0.0
  0
LINE
  8
0
 62
     0
 10
105.901
 20
3.86263
 30
0.0
 11
105.368
 21
3.28524
 31
0.0
  0
LINE
  8
0
 62
     0
 10
105.368
 20
3.28524
 30
0.0
 11
104.79
 21
2.75194
 31
0.0
  0
LINE
  8
0
 62
     0
 10
104.79
 20
2.75194
 30
0.0
 11
104.174
 21
2.26687
 31
0.0
  0
LINE
  8
0
 62
     0
 10
104.174
 20
2.26687
 30
0.0
 11
103.521
 21
1.83003
 31
0.0
  0
LINE
  8
0
 62
     0
 10
103.521
 20
1.83003
 30
0.0
 11
102.836
 21
1.44694
 31
0.0
  0
LINE
  8
0
 62
     0
 10
102.836
 20
1.44694
 30
0.0
 11
102.122
 21
1.11897
 31
0.0
  0
LINE
  8
0
 62
     0
 10
102.122
 20
1.11897
 30
0.0
 11
101.387
 21
0.846116
 31
0.0
  0
LINE
  8
0
 62
     0
 10
101.387
 20
0.846116
 30
0.0
 11
100.63
 21
0.633899
 31
0.0
  0
LINE
  8
0
 62
     0
 10
100.63
 20
0.633899
 30
0.0
 11
99.8608
 21
0.480935
 31
0.0
  0
LINE
  8
0
 62
     0
 10
99.8608
 20
0.480935
 30
0.0
 11
99.0808
 21
0.38723
 31
0.0
  0
LINE
  8
0
 62
     0
 10
99.0808
 20
0.38723
 30
0.0
 11
98.2955
 21
0.356912
 31
0.0
  0
LINE
  8
0
 62
     0
 10
98.2955
 20
0.356912
 30
0.0
 11
10.0955
 21
0.356912
 31
0.0
  0
LINE
  8
0
 62
     0
 10
10.0955
 20
0.356912
 30
0.0
 11
9.31002
 21
0.38723
 31
0.0
  0
LINE
  8
0
 62
     0
 10
9.31002
 20
0.38723
 30
0.0
 11
8.53006
 21
0.480935
 31
0.0
  0
LINE
  8
0
 62
     0
 10
8.53006
 20
0.480935
 30
0.0
 11
7.76111
 21
0.633899
 31
0.0
  0
LINE
  8
0
 62
     0
 10
7.76111
 20
0.633899
 30
0.0
 11
7.00458
 21
0.846116
 31
0.0
  0
LINE
  8
0
 62
     0
 10
7.00458
 20
0.846116
 30
0.0
 11
6.26869
 21
1.11897
 31
0.0
  0
LINE
  8
0
 62
     0
 10
6.26869
 20
1.11897
 30
0.0
 11
5.55487
 21
1.44694
 31
0.0
  0
LINE
  8
0
 62
     0
 10
5.55487
 20
1.44694
 30
0.0
 11
4.86999
 21
1.83003
 31
0.0
  0
LINE
  8
0
 62
     0
 10
4.86999
 20
1.83003
 30
0.0
 11
4.21816
 21
2.26687
 31
0.0
  0
LINE
  8
0
 62
     0
 10
4.21816
 20
2.26687
 30
0.0
 11
3.6008
 21
2.75194
 31
0.0
  0
LINE
  8
0
 62
     0
 10
3.6008
 20
2.75194
 30
0.0
 11
3.02341
 21
3.28524
 31
0.0
  0
LINE
  8
0
 62
     0
 10
3.02341
 20
3.28524
 30
0.0
 11
2.49011
 21
3.86263
 31
0.0
  0
LINE
  8
0
 62
     0
 10
2.49011
 20
3.86263
 30
0.0
 11
2.00504
 21
4.47862
 31
0.0
  0
LINE
  8
0
 62
     0
 10
2.00504
 20
4.47862
 30
0.0
 11
1.56821
 21
5.13182
 31
0.0
  0
LINE
  8
0
 62
     0
 10
1.56821
 20
5.13182
 30
0.0
 11
1.18511
 21
5.81671
 31
0.0
  0
LINE
  8
0
 62
     0
 10
1.18511
 20
5.81671
 30
0.0
 11
0.857141
 21
6.53052
 31
0.0
  0
LINE
  8
0
 62
     0
 10
0.857141
 20
6.53052
 30
0.0
 11
0.584288
 21
7.26641
 31
0.0
  0
LINE
  8
0
 62
     0
 10
0.584288
 20
7.26641
 30
0.0
 11
0.372071
 21
8.02294
 31
0.0
  0
LINE
  8
0
 62
     0
 10
0.372071
 20
8.02294
 30
0.0
 11
0.219108
 21
8.79189
 31
0.0
  0
LINE
  8
0
 62
     0
 10
0.219108
 20
8.79189
 30
0.0
 11
0.125402
 21
9.57185
 31
0.0
  0
LINE
  8
0
 62
     0
 10
0.125402
 20
9.57185
 30
0.0
 11
0.0950846
 21
10.3573
 31
0.0
  0
LINE
  8
0
 62
     0
 10
0.0950846
 20
10.3573
 30
0.0
 11
0.0950846
 21
123.607
 31
0.0
  0
LINE
  8
0
 62
     0
 10
0.0950846
 20
123.607
 30
0.0
 11
0.125402
 21
124.393
 31
0.0
  0
LINE
  8
0
 62
     0
 10
0.125402
 20
124.393
 30
0.0
 11
0.219108
 21
125.173
 31
0.0
  0
LINE
  8
0
 62
     0
 10
0.219108
 20
125.173
 30
0.0
 11
0.372071
 21
125.942
 31
0.0
  0
LINE
  8
0
 62
     0
 10
0.372071
 20
125.942
 30
0.0
 11
0.584288
 21
126.698
 31
0.0
  0
LINE
  8
0
 62
     0
 10
0.584288
 20
126.698
 30
0.0
 11
0.857141
 21
127.434
 31
0.0
  0
LINE
  8
0
 62
     0
 10
0.857141
 20
127.434
 30
0.0
 11
1.18511
 21
128.148
 31
0.0
  0
LINE
  8
0
 62
     0
 10
1.18511
 20
128.148
 30
0.0
 11
1.56821
 21
128.833
 31
0.0
  0
LINE
  8
0
 62
     0
 10
1.56821
 20
128.833
 30
0.0
 11
2.00504
 21
129.485
 31
0.0
  0
LINE
  8
0
 62
     0
 10
2.00504
 20
129.485
 30
0.0
 11
2.49011
 21
130.102
 31
0.0
  0
LINE
  8
0
 62
     0
 10
2.49011
 20
130.102
 30
0.0
 11
3.02341
 21
130.679
 31
0.0
  0
LINE
  8
0
 62
     0
 10
3.02341
 20
130.679
 30
0.0
 11
3.6008
 21
131.213
 31
0.0
  0
LINE
  8
0
 62
     0
 10
3.6008
 20
131.213
 30
0.0
 11
4.21816
 21
131.698
 31
0.0
  0
LINE
  8
0
 62
     0
 10
4.21816
 20
131.698
 30
0.0
 11
4.86999
 21
132.135
 31
0.0
  0
LINE
  8
0
 62
     0
 10
4.86999
 20
132.135
 30
0.0
 11
5.55487
 21
132.518
 31
0.0
  0
LINE
  8
0
 62
     0
 10
5.55487
 20
132.518
 30
0.0
 11
6.26869
 21
132.846
 31
0.0
  0
LINE
  8
0
 62
     0
 10
6.26869
 20
132.846
 30
0.0
 11
7.00458
 21
133.119
 31
0.0
  0
LINE
  8
0
 62
     0
 10
7.00458
 20
133.119
 30
0.0
 11
7.76111
 21
133.331
 31
0.0
  0
LINE
  8
0
 62
     0
 10
7.76111
 20
133.331
 30
0.0
 11
8.53006
 21
133.484
 31
0.0
  0
LINE
  8
0
 62
     0
 10
8.53006
 20
133.484
 30
0.0
 11
9.31002
 21
133.578
 31
0.0
  0
LINE
  8
0
 62
     0
 10
9.31002
 20
133.578
 30
0.0
 11
10.0955
 21
133.608
 31
0.0
  0
LINE
  8
0
 62
     0
 10
10.0955
 20
133.608
 30
0.0
 11
98.2969
 21
133.608
 31
0.0
  0
LINE
  8
0
 62
     0
 10
100.641
 20
8.33162
 30
0.0
 11
100.503
 21
8.26135
 31
0.0
  0
LINE
  8
0
 62
     0
 10
100.503
 20
8.26135
 30
0.0
 11
100.391
 21
8.14973
 31
0.0
  0
LINE
  8
0
 62
     0
 10
100.391
 20
8.14973
 30
0.0
 11
100.32
 21
8.0119
 31
0.0
  0
LINE
  8
0
 62
     0
 10
100.32
 20
8.0119
 30
0.0
 11
100.296
 21
7.85619
 31
0.0
  0
LINE
  8
0
 62
     0
 10
100.296
 20
7.85619
 30
0.0
 11
100.32
 21
7.70184
 31
0.0
  0
LINE
  8
0
 62
     0
 10
100.32
 20
7.70184
 30
0.0
 11
100.391
 21
7.56267
 31
0.0
  0
LINE
  8
0
 62
     0
 10
100.391
 20
7.56267
 30
0.0
 11
100.503
 21
7.45243
 31
0.0
  0
LINE
  8
0
 62
     0
 10
100.503
 20
7.45243
 30
0.0
 11
100.641
 21
7.38078
 31
0.0
  0
LINE
  8
0
 62
     0
 10
100.641
 20
7.38078
 30
0.0
 11
100.797
 21
7.35598
 31
0.0
  0
LINE
  8
0
 62
     0
 10
100.797
 20
7.35598
 30
0.0
 11
100.951
 21
7.38078
 31
0.0
  0
LINE
  8
0
 62
     0
 10
100.951
 20
7.38078
 30
0.0
 11
101.09
 21
7.45243
 31
0.0
  0
LINE
  8
0
 62
     0
 10
101.09
 20
7.45243
 30
0.0
 11
101.2
 21
7.56267
 31
0.0
  0
LINE
  8
0
 62
     0
 10
101.2
 20
7.56267
 30
0.0
 11
101.272
 21
7.70184
 31
0.0
  0
LINE
  8
0
 62
     0
 10
101.272
 20
7.70184
 30
0.0
 11
101.297
 21
7.85619
 31
0.0
  0
LINE
  8
0
 62
     0
 10
101.297
 20
7.85619
 30
0.0
 11
101.272
 21
8.0119
 31
0.0
  0
LINE
  8
0
 62
     0
 10
101.272
 20
8.0119
 30
0.0
 11
101.2
 21
8.14973
 31
0.0
  0
LINE
  8
0
 62
     0
 10
101.2
 20
8.14973
 30
0.0
 11
101.09
 21
8.26135
 31
0.0
  0
LINE
  8
0
 62
     0
 10
101.09
 20
8.26135
 30
0.0
 11
100.951
 21
8.33162
 31
0.0
  0
LINE
  8
0
 62
     0
 10
100.951
 20
8.33162
 30
0.0
 11
100.797
 21
8.35642
 31
0.0
  0
LINE
  8
0
 62
     0
 10
100.797
 20
8.35642
 30
0.0
 11
100.641
 21
8.33162
 31
0.0
  0
LINE
  8
0
 62
     0
 10
7.44001
 20
8.33162
 30
0.0
 11
7.30084
 21
8.26135
 31
0.0
  0
LINE
  8
0
 62
     0
 10
7.30084
 20
8.26135
 30
0.0
 11
7.1906
 21
8.14973
 31
0.0
  0
LINE
  8
0
 62
     0
 10
7.1906
 20
8.14973
 30
0.0
 11
7.11895
 21
8.0119
 31
0.0
  0
LINE
  8
0
 62
     0
 10
7.11895
 20
8.0119
 30
0.0
 11
7.09553
 21
7.85619
 31
0.0
  0
LINE
  8
0
 62
     0
 10
7.09553
 20
7.85619
 30
0.0
 11
7.11895
 21
7.70184
 31
0.0
  0
LINE
  8
0
 62
     0
 10
7.11895
 20
7.70184
 30
0.0
 11
7.1906
 21
7.56267
 31
0.0
  0
LINE
  8
0
 62
     0
 10
7.1906
 20
7.56267
 30
0.0
 11
7.30084
 21
7.45243
 31
0.0
  0
LINE
  8
0
 62
     0
 10
7.30084
 20
7.45243
 30
0.0
 11
7.44001
 21
7.38078
 31
0.0
  0
LINE
  8
0
 62
     0
 10
7.44001
 20
7.38078
 30
0.0
 11
7.59576
 21
7.35598
 31
0.0
  0
LINE
  8
0
 62
     0
 10
7.59576
 20
7.35598
 30
0.0
 11
7.7501
 21
7.38078
 31
0.0
  0
LINE
  8
0
 62
     0
 10
7.7501
 20
7.38078
 30
0.0
 11
7.8879
 21
7.45243
 31
0.0
  0
LINE
  8
0
 62
     0
 10
7.8879
 20
7.45243
 30
0.0
 11
7.99952
 21
7.56267
 31
0.0
  0
LINE
  8
0
 62
     0
 10
7.99952
 20
7.56267
 30
0.0
 11
8.07117
 21
7.70184
 31
0.0
  0
LINE
  8
0
 62
     0
 10
8.07117
 20
7.70184
 30
0.0
 11
8.09597
 21
7.85619
 31
0.0
  0
LINE
  8
0
 62
     0
 10
8.09597
 20
7.85619
 30
0.0
 11
8.07117
 21
8.0119
 31
0.0
  0
LINE
  8
0
 62
     0
 10
8.07117
 20
8.0119
 30
0.0
 11
7.99952
 21
8.14973
 31
0.0
  0
LINE
  8
0
 62
     0
 10
7.99952
 20
8.14973
 30
0.0
 11
7.8879
 21
8.26135
 31
0.0
  0
LINE
  8
0
 62
     0
 10
7.8879
 20
8.26135
 30
0.0
 11
7.7501
 21
8.33162
 31
0.0
  0
LINE
  8
0
 62
     0
 10
7.7501
 20
8.33162
 30
0.0
 11
7.59576
 21
8.35642
 31
0.0
  0
LINE
  8
0
 62
     0
 10
7.59576
 20
8.35642
 30
0.0
 11
7.44001
 21
8.33162
 31
0.0
  0
LINE
  8
0
 62
     0
 10
100.641
 20
126.584
 30
0.0
 11
100.503
 21
126.512
 31
0.0
  0
LINE
  8
0
 62
     0
 10
100.503
 20
126.512
 30
0.0
 11
100.391
 21
126.402
 31
0.0
  0
LINE
  8
0
 62
     0
 10
100.391
 20
126.402
 30
0.0
 11
100.32
 21
126.263
 31
0.0
  0
LINE
  8
0
 62
     0
 10
100.32
 20
126.263
 30
0.0
 11
100.296
 21
126.107
 31
0.0
  0
LINE
  8
0
 62
     0
 10
100.296
 20
126.107
 30
0.0
 11
100.32
 21
125.953
 31
0.0
  0
LINE
  8
0
 62
     0
 10
100.32
 20
125.953
 30
0.0
 11
100.391
 21
125.815
 31
0.0
  0
LINE
  8
0
 62
     0
 10
100.391
 20
125.815
 30
0.0
 11
100.503
 21
125.703
 31
0.0
  0
LINE
  8
0
 62
     0
 10
100.503
 20
125.703
 30
0.0
 11
100.641
 21
125.632
 31
0.0
  0
LINE
  8
0
 62
     0
 10
100.641
 20
125.632
 30
0.0
 11
100.797
 21
125.607
 31
0.0
  0
LINE
  8
0
 62
     0
 10
100.797
 20
125.607
 30
0.0
 11
100.951
 21
125.632
 31
0.0
  0
LINE
  8
0
 62
     0
 10
100.951
 20
125.632
 30
0.0
 11
101.09
 21
125.703
 31
0.0
  0
LINE
  8
0
 62
     0
 10
101.09
 20
125.703
 30
0.0
 11
101.2
 21
125.815
 31
0.0
  0
LINE
  8
0
 62
     0
 10
101.2
 20
125.815
 30
0.0
 11
101.272
 21
125.953
 31
0.0
  0
LINE
  8
0
 62
     0
 10
101.272
 20
125.953
 30
0.0
 11
101.297
 21
126.107
 31
0.0
  0
LINE
  8
0
 62
     0
 10
101.297
 20
126.107
 30
0.0
 11
101.272
 21
126.263
 31
0.0
  0
LINE
  8
0
 62
     0
 10
101.272
 20
126.263
 30
0.0
 11
101.2
 21
126.402
 31
0.0
  0
LINE
  8
0
 62
     0
 10
101.2
 20
126.402
 30
0.0
 11
101.09
 21
126.512
 31
0.0
  0
LINE
  8
0
 62
     0
 10
101.09
 20
126.512
 30
0.0
 11
100.951
 21
126.584
 31
0.0
  0
LINE
  8
0
 62
     0
 10
100.951
 20
126.584
 30
0.0
 11
100.797
 21
126.607
 31
0.0
  0
LINE
  8
0
 62
     0
 10
100.797
 20
126.607
 30
0.0
 11
100.641
 21
126.584
 31
0.0
  0
LINE
  8
0
 62
     0
 10
7.44001
 20
126.584
 30
0.0
 11
7.30084
 21
126.512
 31
0.0
  0
LINE
  8
0
 62
     0
 10
7.30084
 20
126.512
 30
0.0
 11
7.1906
 21
126.402
 31
0.0
  0
LINE
  8
0
 62
     0
 10
7.1906
 20
126.402
 30
0.0
 11
7.11895
 21
126.263
 31
0.0
  0
LINE
  8
0
 62
     0
 10
7.11895
 20
126.263
 30
0.0
 11
7.09553
 21
126.107
 31
0.0
  0
LINE
  8
0
 62
     0
 10
7.09553
 20
126.107
 30
0.0
 11
7.11895
 21
125.953
 31
0.0
  0
LINE
  8
0
 62
     0
 10
7.11895
 20
125.953
 30
0.0
 11
7.1906
 21
125.815
 31
0.0
  0
LINE
  8
0
 62
     0
 10
7.1906
 20
125.815
 30
0.0
 11
7.30084
 21
125.703
 31
0.0
  0
LINE
  8
0
 62
     0
 10
7.30084
 20
125.703
 30
0.0
 11
7.44001
 21
125.632
 31
0.0
  0
LINE
  8
0
 62
     0
 10
7.44001
 20
125.632
 30
0.0
 11
7.59576
 21
125.607
 31
0.0
  0
LINE
  8
0
 62
     0
 10
7.59576
 20
125.607
 30
0.0
 11
7.7501
 21
125.632
 31
0.0
  0
LINE
  8
0
 62
     0
 10
7.7501
 20
125.632
 30
0.0
 11
7.8879
 21
125.703
 31
0.0
  0
LINE
  8
0
 62
     0
 10
7.8879
 20
125.703
 30
0.0
 11
7.99952
 21
125.815
 31
0.0
  0
LINE
  8
0
 62
     0
 10
7.99952
 20
125.815
 30
0.0
 11
8.07117
 21
125.953
 31
0.0
  0
LINE
  8
0
 62
     0
 10
8.07117
 20
125.953
 30
0.0
 11
8.09597
 21
126.107
 31
0.0
  0
LINE
  8
0
 62
     0
 10
8.09597
 20
126.107
 30
0.0
 11
8.07117
 21
126.263
 31
0.0
  0
LINE
  8
0
 62
     0
 10
8.07117
 20
126.263
 30
0.0
 11
7.99952
 21
126.402
 31
0.0
  0
LINE
  8
0
 62
     0
 10
7.99952
 20
126.402
 30
0.0
 11
7.8879
 21
126.512
 31
0.0
  0
LINE
  8
0
 62
     0
 10
7.8879
 20
126.512
 30
0.0
 11
7.7501
 21
126.584
 31
0.0
  0
LINE
  8
0
 62
     0
 10
7.7501
 20
126.584
 30
0.0
 11
7.59576
 21
126.607
 31
0.0
  0
LINE
  8
0
 62
     0
 10
7.59576
 20
126.607
 30
0.0
 11
7.44001
 21
126.584
 31
0.0
  0
ENDSEC
  0
EOF
